<svg width="17" height="17" viewBox="0 0 17 17" fill="none" xmlns="http://www.w3.org/2000/svg">
<g clip-path="url(#clip0_1_8542)">
<path d="M16.0083 1.48751C15.9375 1.27501 15.725 1.06251 15.5125 0.991675C12.5375 0.212508 9.49166 1.13334 7.43749 3.54167L6.65833 4.46251L4.74583 4.03751C3.82499 3.68334 2.83333 4.10834 2.40833 4.95834L0.849994 7.72084C0.708327 7.93334 0.708327 8.14584 0.849994 8.35834C0.920827 8.57084 1.13333 8.71251 1.34583 8.78334L3.54166 9.27917C3.32916 9.84584 3.25833 10.4125 3.11666 10.9792C3.11666 11.1917 3.18749 11.4042 3.32916 11.5458L5.52499 13.7417C5.66666 13.8833 5.80833 13.9542 6.02083 13.9542H6.09166C6.72916 13.8833 7.29583 13.8125 7.86249 13.6L8.28749 15.725C8.35833 15.9375 8.49999 16.15 8.71249 16.2208C8.78333 16.2917 8.92499 16.2917 8.99583 16.2917C9.13749 16.2917 9.20833 16.2917 9.34999 16.2208L12.1125 14.6625C12.8917 14.2375 13.3167 13.2458 13.1042 12.325L12.6083 10.3417L13.4583 9.56251C15.7958 7.57917 16.7875 4.39167 16.0083 1.48751ZM5.17083 6.23334C4.74583 6.80001 4.32083 7.36667 4.03749 7.93334L2.54999 7.57917L3.61249 5.66667C3.75416 5.38334 4.03749 5.31251 4.39166 5.38334L5.59583 5.66667L5.17083 6.23334ZM11.3333 13.3875L9.42083 14.45L9.13749 13.0333C9.77499 12.75 10.3417 12.325 10.8375 11.9L11.3333 11.4042L11.6167 12.6083C11.7583 12.9625 11.5458 13.3167 11.3333 13.3875ZM11.8292 6.23334C11.2625 6.23334 10.7667 5.73751 10.7667 5.17084C10.7667 4.60417 11.2625 4.10834 11.8292 4.10834C12.3958 4.10834 12.8917 4.60417 12.8917 5.17084C12.8917 5.73751 12.4667 6.23334 11.8292 6.23334Z" fill="#0079F0"/>
</g>
<defs>
<clipPath id="clip0_1_8542">
<rect width="17" height="17" fill="white"/>
</clipPath>
</defs>
</svg>
